<svg id="bikcraft" xmlns="http://www.w3.org/2000/svg" width="199.703" height="123.816" viewBox="0 0 199.703 123.816">
  <path id="Path_1" data-name="Path 1" d="M9.25,10.185c3.121-.124,10.734-.373,14.6-1.248-.126,1.624-.375,6.616-.375,16.1v4.244c3.495-2.872,6.367-4.37,9.861-4.37a10.28,10.28,0,0,1,8.987,4.619,19.584,19.584,0,0,1,2.5,10.111c0,11.607-5.492,18.223-16.6,18.223a20.939,20.939,0,0,1-8.737-2.123c-1.5.5-3.495,1.5-5.492,2.123l-.625-.375c.126-3.371.126-9.736.126-18.349V23.166c0-3.994-.126-6.74-.25-9.11-.126-1.624-.5-1.873-4.244-1.873ZM28.221,55.494c4.244,0,6.241-5.118,6.241-14.6a20.614,20.614,0,0,0-1.747-9.236,4.5,4.5,0,0,0-3.994-2.5A5.748,5.748,0,0,0,24.1,31.9c-.623.875-.873,1.624-.873,11.483,0,8.114.375,8.364.875,9.362A4.493,4.493,0,0,0,28.221,55.494Zm38.443,1.624c-2.622,0-5.242-.252-9.362-.252-4.368,0-6.49.252-8.611.252V54.995c3.495-.126,3.994-.749,4.12-2.123.124-1.5.25-3.868.25-7.739V37.145c0-3.245,0-5.865-.126-6.99s-.625-1.5-3.87-1.372V26.661c4.37-.373,9.612-.5,13.855-1.372-.126,1.624-.25,4.619-.25,11.483v8.613c0,3.994.126,5.741.25,7.489s.625,2,3.744,2.37ZM57.3,10.81c3.247,0,5.118,1.873,5.118,5.242,0,2.872-2.123,4.869-5.368,4.869a4.652,4.652,0,0,1-4.867-4.869A4.947,4.947,0,0,1,57.3,10.81Zm12.607-.625A92.036,92.036,0,0,0,83.515,8.937q-.253,7.736-.252,15.477v15.6c2.372-.625,7.489-6.866,9.486-10.484.375-.749.375-1.124-.623-1.124l-2.746-.25V26.038c4.619.126,9.362-.126,14.105-.375v2.123c-3.495.375-4.869.625-6.243,1.747a58.4,58.4,0,0,0-5.991,6.241c1.5,3.121,7.741,14.6,10.111,17.724a3.48,3.48,0,0,0,3.121,1.5l1.745.126-.124,2.121a92.526,92.526,0,0,0-13.855.749c-1.5-3.495-5.991-11.982-7.363-14.6-.749-1.372-1.124-1.871-1.624-1.747,0,5.118-.124,7.615.126,11.233.126,1.624.5,2.123,3.87,2.247v2.123c-2.372,0-4.869-.25-8.987-.25-4.869,0-6.99.25-8.863.25V55.118c3.245-.124,3.744-.747,3.87-2,.124-1.5.248-4.743.248-11.233v-16.1c0-5.118,0-8.987-.124-12.232q0-1.123-1.5-1.124H69.784ZM39.83,87.946c-2.123,6.74-6.241,9.985-13.107,9.985-5.867,0-9.612-1.624-12.232-5.118-2-2.62-3-6.49-3-10.858,0-9.612,5.867-16.975,16.6-16.975,6.49,0,11.233,3,11.233,7.864,0,3.369-2.746,4.741-4.993,4.741a5.664,5.664,0,0,1-2.5-.623,1.95,1.95,0,0,1-.875-2.247,18.8,18.8,0,0,0,.375-2.622c0-3.119-1.124-4.617-3.495-4.617-3.87,0-5.867,5.618-5.867,13.356,0,3.119.375,6.614,1.5,8.735,1.248,2.872,3.245,4.493,6.241,4.493,3.744,0,6.117-2.121,7.864-6.99Zm7.113-9.11a69.735,69.735,0,0,0-.375-8.739,1.315,1.315,0,0,0-1.5-1.246H42.824V66.727c3.744-.126,8.863-.375,12.481-1.5l.375.25c.25,1.5.5,5.118.625,7.365h.248c1.626-4.37,3.87-7.864,8.489-7.864a4.7,4.7,0,0,1,4.619,4.993c0,4.12-3.121,5.368-4.37,5.368a2.417,2.417,0,0,1-2.5-1.25c-.623-1.372-1-2.121-2.245-2.121-1.374,0-2.123,1.248-3,3.245a13.251,13.251,0,0,0-.625,4.493c0,7.115,0,11.109.126,12.857s.747,2.245,5.739,2.37l-.124,2.123c-3.495-.126-6.616-.252-10.235-.252-3.744,0-6.49.126-9.612.252l.373-2.123c3-.126,3.744-.5,3.744-1.747.126-1.747.25-5.118.25-8.987V78.833h-.25Zm42.313-5.741c0-3.746-1.25-5.743-3.746-5.743-2.87,0-4.242,1.624-4.242,4.619a13.933,13.933,0,0,0,.248,2.372,1.778,1.778,0,0,1-.747,1.871,6.822,6.822,0,0,1-3.495,1.124c-2.372,0-4.37-1.126-4.37-3.87,0-3.994,5.867-8.487,14.105-8.487,6.738,0,9.734,2.746,10.858,4.493a6.272,6.272,0,0,1,1,3.371V91.191c0,2.123.625,2.622,1.374,2.622,1,0,2.121-1.624,2.62-4.37l2.123,1c-1.124,5.368-4.37,7.615-8.863,7.615-3.87,0-5.991-1.624-6.616-4.869-3,3-6.115,4.869-9.36,4.869-5.242,0-8.737-3.495-8.737-9.238,0-3.495,1.5-5.492,4.12-6.614,4.242-1.873,10.608-3.744,13.728-5.991V73.092ZM81.392,86.947c0,2.746,1.124,5.741,3.87,5.741,2,0,2.87-1.248,3.495-2.5a9.272,9.272,0,0,0,.373-3V78.709c-1.374.875-3.495,1.873-5.118,2.872C82.515,82.58,81.392,83.826,81.392,86.947ZM106.106,66.1l3.994.124v-2c.126-5.242,1.374-9.112,4.12-11.858a12.335,12.335,0,0,1,9.11-3.744c5.118,0,7.864,2.5,7.864,5.741,0,2.372-2,3.994-4.745,3.994a2.358,2.358,0,0,1-2.5-2.5c0-2.62-.373-4.741-2.245-4.741-1.25,0-2,1.122-2.249,3.245-.248,2,.126,5.741.375,11.607h6.117l-.375,2.5-5.741.375c-.126,2.37-.126,6.49-.126,11.357,0,4.619,0,8.737.126,11.982.126,1.624.375,2.247,1.747,2.372a33.278,33.278,0,0,0,3.371.248l-.254,2.123c-2.37,0-6.115-.25-9.36-.25-3.371,0-7.365.25-9.612.25l.126-2.123c3.245-.124,3.744-.5,3.87-1.871.248-2.123.248-5.368.248-9.736V68.724l-4.242-.25L106.1,66.1Z" transform="translate(8.973 8.91)" fill="#fec63e"/>
  <path id="Path_2" data-name="Path 2" d="M89.844,43.11l-.252,2.37-7.613.5c0,2.622-.126,6.49-.126,11.733,0,5.492,0,9.236.252,11.483.124,1.624.747,2.372,2,2.372,2.62,0,4.242-2.872,4.867-5.492h1l.875,2.87c-1.5,3.621-5.244,6.117-10.736,6.117-3,0-5.616-1-6.864-2.5a6.876,6.876,0,0,1-1.248-4.493c0-5.118.25-16.6.25-22.093L68.25,45.6l.25-2.37h3.744c.126-2.372.126-5.118.126-7.615A34.5,34.5,0,0,0,81.73,32l.749.126q-.327,5.548-.375,11.108h7.74v-.126Z" transform="translate(68.048 31.905)" fill="#fec63e"/>
  <path id="Path_3" data-name="Path 3" d="M189.718,9.985V113.831H9.985V9.985ZM199.7,0H0V123.816H199.7Z" fill="#fec63e"/>
</svg>
